# xmcd
#
# Track frame offsets: 
#        150
#        18966
#        38335
#        56651
#
# Disc length: 1013 seconds
#
# Revision: 3
# Processed by: cddbd v1.5.2PL0 Copyright (c) Steve Scherf et al.
# Submitted via: ExactAudioCopy v0.95b4
#
DISCID=2303f304
DTITLE=The Wild Cards - Heads Up Final Table
DYEAR=2004
DGENRE=Blues
TTITLE0=Heads Up, Final Table
TTITLE1=Patience
TTITLE2=Heads Up, Final Table - Instrumental
TTITLE3=Patience - Instrumental
EXTD=YEAR: 2002
EXTT0=
EXTT1=
EXTT2=
EXTT3=
PLAYORDER=
